
        <svg xmlns="http://www.w3.org/2000/svg" xmlns:xlink="http://www.w3.org/1999/xlink" version="1.1" width="3162.162162162162" 
        height="492.67250299323376" viewBox="0 0 3162.162162162162 492.67250299323376">
			
			<g transform="scale(8.108108108108107) translate(10, 10)">
				<defs id="SvgjsDefs3235"></defs><g id="SvgjsG3236" featureKey="5TMTKC-0" transform="matrix(0.813953632790079,0,0,0.813953632790079,-5.697678534517251,-20.302330780442844)" fill="#355c7d"><g xmlns="http://www.w3.org/2000/svg" transform="translate(0,-952.36218)"><path style="color:;enable-background:accumulate;" d="m 7.000009,1016.3622 16,-1 c 0,-3.0491 2,-8 2,-8 0,0 2.5409,0 5,0 2,-4 5,-12.00002 7,-12.00002 0,0 1,-4 3,-4 2.6314,0 16.99998,9.00002 16.99998,9.00002 l -10.99998,16 c 0,0 5.41738,-2.8351 10.99998,-4 1.988,-0.4148 -0.2344,-4.7065 2,-5 1.929,-0.2534 4,-1 5,-1 1,0 2.0324,-13.24872 4,-11.00002 7,8.00002 21.4047,17.28082 25.000002,21.00002 l -12.000002,-17.00002 -3,4.00002 -9,-13.00002 -11,7 -10.99998,-8 -3,2 -5,-3 -4,6 -5,-2 -12,16.00002 -3.3749,-0.6251 -7.6251,8.6251" fill="#355c7d" stroke="none" marker="none" visibility="visible" display="inline" overflow="visible"></path></g></g><g id="SvgjsG3237" featureKey="7UBp9i-0" transform="matrix(2.7247955836824516,0,0,2.7247955836824516,87.92915408310323,-14.659400552039697)" fill="#355c7d"><path d="M7.78 5.380000000000001 c2.1066 0 3.8034 0.7 5.09 2.1 s1.93 3.2134 1.93 5.44 c0 2.1734 -0.64666 3.9534 -1.94 5.34 s-2.9866 2.08 -5.08 2.08 c-2.1066 0 -3.8034 -0.69334 -5.09 -2.08 s-1.93 -3.1666 -1.93 -5.34 c0 -2.2134 0.64666 -4.0234 1.94 -5.43 s2.9866 -2.11 5.08 -2.11 z M3.9 12.92 c0 1.44 0.33998 2.5966 1.02 3.47 s1.6333 1.31 2.86 1.31 c1.2 0 2.1466 -0.43 2.84 -1.29 s1.04 -2.0234 1.04 -3.49 c0 -1.5333 -0.34334 -2.7334 -1.03 -3.6 s-1.6433 -1.3 -2.87 -1.3 c-1.2 0 -2.1434 0.43334 -2.83 1.3 s-1.03 2.0666 -1.03 3.6 z M22.68 9.38 c0.24 0 0.44668 0.03334 0.62002 0.1 l0 2.64 c-0.30666 -0.06666 -0.64666 -0.1 -1.02 -0.1 c-1.8667 0 -2.8 1.1067 -2.8 3.32 l0 4.66 l-2.84 0 l0 -10.34 l2.7 0 l0 1.92 l0.04 0 c0.28 -0.66666 0.72334 -1.2 1.33 -1.6 s1.2633 -0.6 1.97 -0.6 z M27.259999999999998 5.720000000000001 l0.000019531 5.2 l0.04 0 c0.30666 -0.46666 0.74332 -0.84 1.31 -1.12 s1.2167 -0.42 1.95 -0.42 c1.2667 0 2.2966 0.50666 3.09 1.52 s1.19 2.32 1.19 3.92 c0 1.6133 -0.39334 2.9266 -1.18 3.94 s-1.8267 1.52 -3.12 1.52 c-1.68 0 -2.8066 -0.53334 -3.38 -1.6 l-0.04 0 l0 1.32 l-2.7 0 l0 -14.28 l2.84 0 z M27.16 14.84 c0 1 0.21998 1.8 0.65998 2.4 s1.0267 0.9 1.76 0.9 c0.72 0 1.3033 -0.29334 1.75 -0.88 s0.67 -1.3933 0.67 -2.42 c0 -1.0133 -0.21666 -1.82 -0.65 -2.42 s-1.03 -0.9 -1.79 -0.9 c-0.74666 0 -1.3333 0.30666 -1.76 0.92 s-0.64 1.4133 -0.64 2.4 z M39.56 5.720000000000001 l0 2.34 l-2.84 0 l0 -2.34 l2.84 0 z M39.56 9.66 l0 10.34 l-2.84 0 l0 -10.34 l2.84 0 z M45.4 6.5600000000000005 l0.000019531 3.1 l2.08 0 l0 1.9 l-2.08 0 l0 5.12 c0 0.48 0.08 0.8 0.24 0.96 s0.48 0.24 0.96 0.24 c0.34666 0 0.64 -0.02666 0.88 -0.08 l0 2.22 c-0.4 0.06666 -0.96 0.1 -1.68 0.1 c-1.0933 0 -1.9067 -0.18666 -2.44 -0.56 s-0.8 -1.02 -0.8 -1.94 l0 -6.06 l-1.72 0 l0 -1.9 l1.72 0 l0 -3.1 l2.84 0 z M55.54 5.380000000000001 c1.6667 0 3.0666 0.47 4.2 1.41 s1.7867 2.1834 1.96 3.73 l-3.04 0 c-0.10666 -0.70666 -0.46 -1.3 -1.06 -1.78 s-1.2867 -0.72 -2.06 -0.72 c-1.2267 0 -2.18 0.44 -2.86 1.32 s-1.02 2.0734 -1.02 3.58 c0 1.4667 0.34334 2.63 1.03 3.49 s1.6367 1.29 2.85 1.29 c0.90666 0 1.64 -0.27666 2.2 -0.83 s0.90666 -1.3433 1.04 -2.37 l3.04 0 c-0.16 1.8133 -0.81 3.24 -1.95 4.28 s-2.5834 1.56 -4.33 1.56 c-2.0934 0 -3.7866 -0.69 -5.08 -2.07 s-1.94 -3.1634 -1.94 -5.35 c0 -2.2134 0.64 -4.0234 1.92 -5.43 s2.98 -2.11 5.1 -2.11 z M66.5 9.66 l0 5.86 c0 0.8 0.12666 1.42 0.38 1.86 s0.73334 0.66 1.44 0.66 c0.78666 0 1.35 -0.23334 1.69 -0.7 s0.51 -1.2133 0.51 -2.24 l0 -5.44 l2.84 0 l0 10.34 l-2.7 0 l0 -1.44 l-0.06 0 c-0.70666 1.1467 -1.7667 1.72 -3.18 1.72 c-1.3467 0 -2.31 -0.34334 -2.89 -1.03 s-0.87 -1.7433 -0.87 -3.17 l0 -6.42 l2.84 0 z M81.56 9.38 c0.24 0 0.44668 0.03334 0.62002 0.1 l0 2.64 c-0.30666 -0.06666 -0.64666 -0.1 -1.02 -0.1 c-1.8667 0 -2.8 1.1067 -2.8 3.32 l0 4.66 l-2.84 0 l0 -10.34 l2.7 0 l0 1.92 l0.04 0 c0.28 -0.66666 0.72334 -1.2 1.33 -1.6 s1.2633 -0.6 1.97 -0.6 z M85.3 9.66 l2.18 7.06 l0.04 0 l2.18 -7.06 l2.82 0 l-3.5 10.34 l-3.16 0 l-3.54 -10.34 l2.98 0 z M98.48 9.38 c0.97334 0 1.84 0.22664 2.6 0.67998 s1.3567 1.11 1.79 1.97 s0.65 1.85 0.65 2.97 c0 0.10666 -0.0066602 0.28 -0.02 0.52 l-7.46 0 c0.02666 0.82666 0.24332 1.47 0.64998 1.93 s1.03 0.69 1.87 0.69 c0.52 0 0.99666 -0.13 1.43 -0.39 s0.71 -0.57666 0.83 -0.95 l2.5 0 c-0.73334 2.32 -2.3466 3.48 -4.84 3.48 c-0.94666 -0.01334 -1.8233 -0.22 -2.63 -0.62 s-1.45 -1.0233 -1.93 -1.87 s-0.72 -1.83 -0.72 -2.95 c0 -1.0533 0.24334 -2.0134 0.73 -2.88 s1.1333 -1.5133 1.94 -1.94 s1.6767 -0.64 2.61 -0.64 z M100.66 13.719999999999999 c-0.13334 -0.77334 -0.38 -1.3333 -0.74 -1.68 s-0.87334 -0.52 -1.54 -0.52 c-0.69334 0 -1.24 0.19666 -1.64 0.59 s-0.63334 0.93 -0.7 1.61 l4.62 0 z"></path></g>
			</g>
		</svg>
	